<svg width="40" height="41" viewBox="0 0 40 41" fill="none" xmlns="http://www.w3.org/2000/svg">
<path d="M20 8.22839C14.6667 8.22839 11.3333 10.8951 10 16.2284C12 13.5617 14.3333 12.5617 17 13.2284C18.5214 13.6087 19.6089 14.7126 20.8127 15.9343C22.7736 17.9248 25.043 20.2284 30 20.2284C35.3333 20.2284 38.6667 17.5617 40 12.2284C38 14.8951 35.6667 15.8951 33 15.2284C31.4786 14.8481 30.3911 13.7442 29.1873 12.5225C27.2264 10.532 24.957 8.22839 20 8.22839ZM10 20.2284C4.66672 20.2284 1.33328 22.8951 0 28.2284C2 25.5617 4.33328 24.5617 7 25.2284C8.52141 25.6087 9.60891 26.7126 10.8127 27.9343C12.7736 29.9248 15.043 32.2284 20 32.2284C25.3333 32.2284 28.6667 29.5617 30 24.2284C28 26.8951 25.6667 27.8951 23 27.2284C21.4786 26.8481 20.3911 25.7442 19.1873 24.5225C17.2264 22.532 14.957 20.2284 10 20.2284Z" fill="url(#paint0_linear_3009_771)"/>
<defs>
<linearGradient id="paint0_linear_3009_771" x1="-1.1112" y1="15.9084" x2="33.4353" y2="35.8273" gradientUnits="userSpaceOnUse">
<stop stop-color="#2298BD"/>
<stop offset="1" stop-color="#0ED7B5"/>
</linearGradient>
</defs>
</svg>
